<svg width="24" height="24" viewBox="0 0 24 24" fill="none" xmlns="http://www.w3.org/2000/svg"><rect width="24" height="24" fill="none" rx="0" ry="0"></rect><path fill-rule="evenodd" clip-rule="evenodd" d="M19.3345 3.77817C18.7487 3.19239 17.799 3.19239 17.2132 3.77817L11.5563 9.43503L5.89948 3.77817C5.31369 3.19239 4.36395 3.19239 3.77816 3.77817C3.19237 4.36396 3.19237 5.31371 3.77816 5.89949L9.43502 11.5563L3.77816 17.2132C3.19238 17.799 3.19237 18.7487 3.77816 19.3345C4.36395 19.9203 5.3137 19.9203 5.89948 19.3345L11.5563 13.6777L17.2132 19.3345C17.799 19.9203 18.7487 19.9203 19.3345 19.3345C19.9203 18.7487 19.9203 17.799 19.3345 17.2132L13.6777 11.5563L19.3345 5.89949C19.9203 5.31371 19.9203 4.36396 19.3345 3.77817Z" fill="#ffffff"></path></svg>